<?xml version="1.0" encoding="UTF-8"?>
<!DOCTYPE svg PUBLIC "-//W3C//DTD SVG 1.1//EN" "http://www.w3.org/Graphics/SVG/1.1/DTD/svg11.dtd">
<svg version="1.1" xmlns="http://www.w3.org/2000/svg" xmlns:xlink="http://www.w3.org/1999/xlink" x="0" y="0" width="199.679" height="379.042" viewBox="0, 0, 199.679, 379.042">
  <g id="Kuninkaanpidot" transform="translate(-111.975, -65.438)">
    <g id="Kilpi">
      <path d="M212.314,443.763 C210.314,426.523 156.911,413.151 132.065,362.024 C103.383,303.004 121.37,221.588 113.475,212.537 C167.122,207.095 194.14,190.962 212.314,179.397 C230.488,190.962 257.506,207.095 311.154,212.537 C303.258,221.588 321.245,303.004 292.563,362.024 C267.717,413.151 214.314,426.523 212.314,443.763" fill="#FFFFFF"/>
      <path d="M212.314,443.763 C210.314,426.523 156.911,413.151 132.065,362.024 C103.383,303.004 121.37,221.588 113.475,212.537 C167.122,207.095 194.14,190.962 212.314,179.397 C230.488,190.962 257.506,207.095 311.154,212.537 C303.258,221.588 321.245,303.004 292.563,362.024 C267.717,413.151 214.314,426.523 212.314,443.763" fill-opacity="0" stroke="#000000" stroke-width="1.25"/>
    </g>
    <g id="Aurinko">
      <path d="M223.739,186.365 C230.435,190.167 237.288,193.737 244.443,196.606 L224.266,227.201 C227.993,229.446 230.861,232.855 232.549,236.85 L296.567,210.706 C301.401,211.512 306.284,212.005 311.154,212.537 C308.661,216.068 308.943,224.06 308.928,227.873 C308.906,233.71 309.133,239.549 309.284,245.382 L234.599,245.059 L234.655,246.181 C234.51,249.05 234.598,249.624 233.633,252.946 C233.338,253.961 232.81,254.892 232.399,255.866 L308.497,297.526 C307.041,315.46 303.84,333.293 297.48,350.163 L227.097,263.015 C225.147,265.265 222.382,266.34 219.735,267.459 L262.433,400.909 C250.896,411.808 237.042,419.719 224.421,429.209 C219.391,432.991 213.674,437.259 212.314,443.763 C209.539,433.485 197.952,427.51 189.787,421.876 C180.115,415.203 170.525,408.462 161.805,400.555 L205.077,267.881 C202.239,266.715 199.476,265.777 197.235,263.537 L126.69,348.947 C120.231,332.478 117.931,314.843 116.115,297.374 L191.621,256.363 C190.009,253.41 189.356,250.166 189.189,246.841 L115.15,252.928 C115.27,242.528 116.023,232.12 115.557,221.718 C115.51,220.667 115.374,219.621 115.283,218.573 L190.379,238.941 C191.549,235.012 193.81,232.25 196.633,229.427 L167.765,201.318 C175.43,198.925 182.699,195.543 189.949,192.141 L203.989,224.94 C206.433,223.709 209.228,223.566 211.905,223.431 C215.017,223.588 213.471,223.393 216.543,224.02 L223.739,186.365 z" fill="#FFFFFF"/>
      <path d="M223.739,186.365 C230.435,190.167 237.288,193.737 244.443,196.606 L224.266,227.201 C227.993,229.446 230.861,232.855 232.549,236.85 L296.567,210.706 C301.401,211.512 306.284,212.005 311.154,212.537 C308.661,216.068 308.943,224.06 308.928,227.873 C308.906,233.71 309.133,239.549 309.284,245.382 L234.599,245.059 L234.655,246.181 C234.51,249.05 234.598,249.624 233.633,252.946 C233.338,253.961 232.81,254.892 232.399,255.866 L308.497,297.526 C307.041,315.46 303.84,333.293 297.48,350.163 L227.097,263.015 C225.147,265.265 222.382,266.34 219.735,267.459 L262.433,400.909 C250.896,411.808 237.042,419.719 224.421,429.209 C219.391,432.991 213.674,437.259 212.314,443.763 C209.539,433.485 197.952,427.51 189.787,421.876 C180.115,415.203 170.525,408.462 161.805,400.555 L205.077,267.881 C202.239,266.715 199.476,265.777 197.235,263.537 L126.69,348.947 C120.231,332.478 117.931,314.843 116.115,297.374 L191.621,256.363 C190.009,253.41 189.356,250.166 189.189,246.841 L115.15,252.928 C115.27,242.528 116.023,232.12 115.557,221.718 C115.51,220.667 115.374,219.621 115.283,218.573 L190.379,238.941 C191.549,235.012 193.81,232.25 196.633,229.427 L167.765,201.318 C175.43,198.925 182.699,195.543 189.949,192.141 L203.989,224.94 C206.433,223.709 209.228,223.566 211.905,223.431 C215.017,223.588 213.471,223.393 216.543,224.02 L223.739,186.365 z" fill-opacity="0" stroke="#000000" stroke-width="1.25"/>
    </g>
    <g id="Vesi">
      <path d="M287.401,346.138 C291.338,346.196 289.658,345.971 292.472,346.526 C296.407,347.87 294.555,347.142 298.043,348.668 L298.849,346.53 L298.849,346.53 C294.394,358.347 296.582,353.221 292.563,362.024 C292.563,362.024 292.563,362.024 292.563,362.024 C267.742,413.1 214.713,426.548 212.611,443.763 C212.61,443.771 212.489,443.984 212.423,443.98 C212.337,443.976 212.315,443.753 212.314,443.763 C210.314,426.523 156.911,413.151 132.065,362.024 C128.381,353.953 130.234,358.347 126.631,348.789 C130.356,346.896 134.178,346.491 138.237,347.328 C142.466,348.434 146.101,350.963 150.365,351.972 C155.065,353.085 159.698,351.597 163.774,349.288 L163.775,349.279 C167.911,347.188 172.221,345.853 176.863,347.068 C181.089,348.174 184.721,350.703 188.982,351.712 C193.681,352.825 198.312,351.336 202.387,349.028 L202.388,349.022 C206.508,347.051 210.896,345.6 215.483,346.805 C219.706,347.911 223.335,350.44 227.594,351.449 C232.217,352.545 236.803,351.123 240.823,348.856 L240.83,348.868 C258.385,339.325 261.421,358.974 279.43,348.717 L279.43,348.716 C281.911,347.28 284.63,346.692 287.401,346.138 z" fill="#FFFFFF"/>
      <path d="M287.401,346.138 C291.338,346.196 289.658,345.971 292.472,346.526 C296.407,347.87 294.555,347.142 298.043,348.668 L298.849,346.53 L298.849,346.53 C294.394,358.347 296.582,353.221 292.563,362.024 C292.563,362.024 292.563,362.024 292.563,362.024 C267.742,413.1 214.713,426.548 212.611,443.763 C212.61,443.771 212.489,443.984 212.423,443.98 C212.337,443.976 212.315,443.753 212.314,443.763 C210.314,426.523 156.911,413.151 132.065,362.024 C128.381,353.953 130.234,358.347 126.631,348.789 C130.356,346.896 134.178,346.491 138.237,347.328 C142.466,348.434 146.101,350.963 150.365,351.972 C155.065,353.085 159.698,351.597 163.774,349.288 L163.775,349.279 C167.911,347.188 172.221,345.853 176.863,347.068 C181.089,348.174 184.721,350.703 188.982,351.712 C193.681,352.825 198.312,351.336 202.387,349.028 L202.388,349.022 C206.508,347.051 210.896,345.6 215.483,346.805 C219.706,347.911 223.335,350.44 227.594,351.449 C232.217,352.545 236.803,351.123 240.823,348.856 L240.83,348.868 C258.385,339.325 261.421,358.974 279.43,348.717 L279.43,348.716 C281.911,347.28 284.63,346.692 287.401,346.138 z" fill-opacity="0" stroke="#000000" stroke-width="1.25"/>
    </g>
    <g id="Aalto3">
      <path d="M231.219,377.724 C214.594,390.099 209.178,371.082 192.917,382.693 L192.917,385.693 C209.178,374.082 214.594,393.099 231.219,380.724 L231.219,377.724" fill="#FFFFFF"/>
      <path d="M231.219,377.724 C214.594,390.099 209.178,371.082 192.917,382.693 L192.917,385.693 C209.178,374.082 214.594,393.099 231.219,380.724 L231.219,377.724" fill-opacity="0" stroke="#000000" stroke-width="1.25"/>
    </g>
    <g id="Aalto2">
      <path d="M231.465,388.474 C214.84,400.849 209.424,381.832 193.163,393.443 L193.163,396.443 C209.424,384.832 214.84,403.849 231.465,391.474 L231.465,388.474" fill="#FFFFFF"/>
      <path d="M231.465,388.474 C214.84,400.849 209.424,381.832 193.163,393.443 L193.163,396.443 C209.424,384.832 214.84,403.849 231.465,391.474 L231.465,388.474" fill-opacity="0" stroke="#000000" stroke-width="1.25"/>
    </g>
    <g id="Aalto1">
      <path d="M231.219,399.724 C214.594,412.099 209.178,393.082 192.917,404.693 L192.917,407.693 C209.178,396.082 214.594,415.099 231.219,402.724 L231.219,399.724" fill="#FFFFFF"/>
      <path d="M231.219,399.724 C214.594,412.099 209.178,393.082 192.917,404.693 L192.917,407.693 C209.178,396.082 214.594,415.099 231.219,402.724 L231.219,399.724" fill-opacity="0" stroke="#000000" stroke-width="1.25"/>
    </g>
    <g id="Horisontti">
      <path d="M289.476,343.067 C292.86,343.243 295.992,344.651 299.067,345.953 L298.043,348.668 C294.555,347.142 296.407,347.87 292.472,346.526 C287.852,345.316 283.549,346.633 279.43,348.716 L279.43,348.717 C261.421,358.974 258.385,339.325 240.83,348.868 L240.823,348.857 C236.803,351.123 232.217,352.545 227.594,351.449 C223.335,350.44 219.706,347.911 215.483,346.805 C210.896,345.6 206.508,347.051 202.388,349.022 L202.387,349.028 C198.312,351.336 193.681,352.825 188.982,351.712 C184.721,350.703 181.089,348.174 176.863,347.068 C172.221,345.853 167.911,347.188 163.775,349.279 L163.774,349.288 C159.698,351.597 155.065,353.085 150.365,351.972 C146.101,350.963 142.466,348.434 138.238,347.328 C134.35,346.311 130.184,346.993 126.631,348.789 L125.745,346.439 C128.648,344.687 131.908,344.106 135.234,343.87 L135.234,343.87 C141.997,344.235 147.315,349.19 154.128,349.381 C157.723,349.486 160.984,347.894 164.115,346.323 L164.116,346.314 C167.59,344.387 169.979,343.825 173.863,343.61 L173.863,343.61 C180.626,343.975 185.944,348.93 192.757,349.121 C196.352,349.227 199.609,347.63 202.739,346.058 L202.74,346.051 C206.213,344.125 208.603,343.562 212.487,343.347 C219.25,343.712 224.568,348.667 231.381,348.858 C234.944,348.958 238.299,347.418 241.362,345.788 L241.347,345.804 C244.753,343.921 247.125,343.509 250.921,343.299 L250.921,343.299 C257.684,343.664 263.002,348.619 269.815,348.81 C273.385,348.916 276.621,347.336 279.729,345.773 L279.729,345.772 C283.202,343.845 285.592,343.282 289.476,343.068 L289.476,343.067 z" fill="#FFFFFF"/>
      <path d="M289.476,343.067 C292.86,343.243 295.992,344.651 299.067,345.953 L298.043,348.668 C294.555,347.142 296.407,347.87 292.472,346.526 C287.852,345.316 283.549,346.633 279.43,348.716 L279.43,348.717 C261.421,358.974 258.385,339.325 240.83,348.868 L240.823,348.857 C236.803,351.123 232.217,352.545 227.594,351.449 C223.335,350.44 219.706,347.911 215.483,346.805 C210.896,345.6 206.508,347.051 202.388,349.022 L202.387,349.028 C198.312,351.336 193.681,352.825 188.982,351.712 C184.721,350.703 181.089,348.174 176.863,347.068 C172.221,345.853 167.911,347.188 163.775,349.279 L163.774,349.288 C159.698,351.597 155.065,353.085 150.365,351.972 C146.101,350.963 142.466,348.434 138.238,347.328 C134.35,346.311 130.184,346.993 126.631,348.789 L125.745,346.439 C128.648,344.687 131.908,344.106 135.234,343.87 L135.234,343.87 C141.997,344.235 147.315,349.19 154.128,349.381 C157.723,349.486 160.984,347.894 164.115,346.323 L164.116,346.314 C167.59,344.387 169.979,343.825 173.863,343.61 L173.863,343.61 C180.626,343.975 185.944,348.93 192.757,349.121 C196.352,349.227 199.609,347.63 202.739,346.058 L202.74,346.051 C206.213,344.125 208.603,343.562 212.487,343.347 C219.25,343.712 224.568,348.667 231.381,348.858 C234.944,348.958 238.299,347.418 241.362,345.788 L241.347,345.804 C244.753,343.921 247.125,343.509 250.921,343.299 L250.921,343.299 C257.684,343.664 263.002,348.619 269.815,348.81 C273.385,348.916 276.621,347.336 279.729,345.773 L279.729,345.772 C283.202,343.845 285.592,343.282 289.476,343.068 L289.476,343.067 z" fill-opacity="0" stroke="#000000" stroke-width="1.25"/>
    </g>
    <g id="Torni">
      <path d="M211.757,247.749 C215.551,247.81 213.699,247.733 217.314,247.966 L217.314,253.968 C221.516,254.31 220.068,254.093 221.689,254.343 L221.689,248.313 C224.583,248.68 227.512,249.03 230.314,249.905 L230.314,255.955 C232.229,256.448 231.155,256.139 233.519,256.938 L233.889,257.078 L233.889,250.706 C235.716,251.373 237.636,252.258 239.073,253.786 C239.445,254.181 239.659,254.736 239.952,255.211 L239.952,283.693 L239.874,283.693 L231.439,288.563 L231.439,367.942 C227.685,370.721 223.276,372.752 218.49,372.221 C214.14,371.739 210.23,369.671 205.904,369.088 C201.151,368.447 197.037,370.297 193.189,372.876 L193.189,288.563 L184.754,283.693 L184.676,283.693 L184.676,267.698 L184.676,267.698 L184.676,255.12 C185.896,252.535 188.33,251.402 190.614,250.541 L190.614,256.887 C193.343,255.967 192.104,256.325 194.314,255.752 L194.314,249.719 C199.722,248.486 196.912,249.014 202.752,248.18 L202.752,254.296 C204.266,254.102 205.792,254.006 207.314,253.901 L207.314,247.896 C209.823,247.733 208.343,247.804 211.757,247.749 L211.757,247.749 z" fill="#FFFFFF"/>
      <path d="M211.757,247.749 C215.551,247.81 213.699,247.733 217.314,247.966 L217.314,253.968 C221.516,254.31 220.068,254.093 221.689,254.343 L221.689,248.313 C224.583,248.68 227.512,249.03 230.314,249.905 L230.314,255.955 C232.229,256.448 231.155,256.139 233.519,256.938 L233.889,257.078 L233.889,250.706 C235.716,251.373 237.636,252.258 239.073,253.786 C239.445,254.181 239.659,254.736 239.952,255.211 L239.952,283.693 L239.874,283.693 L231.439,288.563 L231.439,367.942 C227.685,370.721 223.276,372.752 218.49,372.221 C214.14,371.739 210.23,369.671 205.904,369.088 C201.151,368.447 197.037,370.297 193.189,372.876 L193.189,288.563 L184.754,283.693 L184.676,283.693 L184.676,267.698 L184.676,267.698 L184.676,255.12 C185.896,252.535 188.33,251.402 190.614,250.541 L190.614,256.887 C193.343,255.967 192.104,256.325 194.314,255.752 L194.314,249.719 C199.722,248.486 196.912,249.014 202.752,248.18 L202.752,254.296 C204.266,254.102 205.792,254.006 207.314,253.901 L207.314,247.896 C209.823,247.733 208.343,247.804 211.757,247.749 L211.757,247.749 z" fill-opacity="0" stroke="#000000" stroke-width="1.25"/>
    </g>
    <g id="ikkuna">
      <path d="M212.314,286.448 C214.967,287.187 215.628,291.393 216.087,293.642 C216.756,296.925 216.978,300.229 217.146,303.566 C215.617,302.678 213.829,302.441 212.099,302.362 L212.099,302.362 C210.477,302.292 208.979,302.801 207.492,303.368 C207.673,299.204 208,294.976 209.204,290.962 C209.68,289.378 210.409,286.837 212.314,286.448 z" fill="#FFFFFF"/>
      <path d="M212.314,286.448 C214.967,287.187 215.628,291.393 216.087,293.642 C216.756,296.925 216.978,300.229 217.146,303.566 C215.617,302.678 213.829,302.441 212.099,302.362 L212.099,302.362 C210.477,302.292 208.979,302.801 207.492,303.368 C207.673,299.204 208,294.976 209.204,290.962 C209.68,289.378 210.409,286.837 212.314,286.448 z" fill-opacity="0" stroke="#000000" stroke-width="1.25"/>
    </g>
    <g id="Kruunu">
      <path d="M209.405,67.282 C209.405,67.282 209.475,66.94 209.53,66.938 C209.606,66.936 209.666,67.243 209.667,67.246 C209.674,67.727 209.929,94.553 219.853,108.622 C219.853,108.622 215.509,108.367 212.238,104.626 C211.516,110.242 212.637,115.784 214.673,121.02 C215.341,122.738 216.301,124.328 217.115,125.983 C220.693,126.373 224.52,126.981 227.934,128.177 C228.649,118.381 231.313,108.739 234.715,99.55 C234.715,99.55 234.826,99.326 234.867,99.332 C234.934,99.341 234.945,99.582 234.945,99.582 C234.945,99.582 234.497,104.964 237.484,112.688 C237.762,93.298 246.179,80.302 246.821,79.347 C246.829,79.335 246.978,79.196 247.008,79.206 C247.073,79.228 246.992,79.44 246.992,79.44 C246.992,79.44 238.379,102.254 242.862,126.689 C239.802,124.021 237.213,120.677 235.924,116.795 L235.983,116.988 C234.954,121.497 234.701,126.137 234.603,130.747 C240.709,133.439 246.366,137.286 250.998,142.102 C252.635,132.223 256.511,122.746 261.109,113.884 C261.114,113.874 261.368,113.506 261.453,113.528 C261.607,113.567 261.475,113.982 261.484,113.965 C261.484,113.965 260.413,119.17 262.644,127.159 C264.802,107.713 274.491,95.578 275.058,94.895 C275.065,94.887 275.239,94.805 275.277,94.832 C275.334,94.874 275.261,95.036 275.261,95.036 C275.261,95.036 264.537,116.868 266.651,141.64 C263.864,138.674 261.608,135.085 260.697,131.086 L260.737,131.285 C258.79,137.307 258.008,143.647 257.605,149.939 C261.686,155.942 265.17,162.594 266.958,169.676 C270.3,162.344 274.521,155.448 279.467,149.09 C279.471,149.085 279.779,148.704 279.826,148.747 C279.889,148.802 279.664,149.223 279.67,149.215 C279.67,149.215 277.884,154.17 278.463,162.462 C284.472,143.915 296.416,134.146 297.13,133.58 C297.138,133.574 297.342,133.425 297.38,133.455 C297.443,133.507 297.271,133.737 297.271,133.737 C297.271,133.737 282.381,152.796 279.476,177.483 C277.359,173.983 275.858,170.019 275.77,165.893 L275.769,166.093 C273.153,170.849 271.062,175.976 269.632,181.214 L269.733,181.754 L269.621,181.255 L269.175,182.888 L266.18,196.704 C245.289,138.635 177.693,136.635 152.493,196.704 L150.445,186.358 C148.532,179.457 146.613,172.302 142.904,166.093 L142.903,165.889 C142.873,170.058 141.201,173.912 139.196,177.483 C136.391,153.636 122.261,135.021 121.317,133.776 C121.303,133.758 121.165,133.411 121.223,133.338 C121.306,133.235 121.598,133.401 121.598,133.401 C121.598,133.401 134.015,143.341 140.21,162.462 C140.765,154.51 139.133,149.5 138.999,149.102 C138.996,149.095 138.96,148.764 139.019,148.728 C139.094,148.682 139.269,148.931 139.269,148.931 C144.472,155.668 148.796,163.038 152.225,170.838 C154.19,164.197 157.349,158.042 161.22,152.331 C160.741,145.291 160.272,138.015 157.935,131.285 L157.975,131.09 C157.114,135.139 154.699,138.574 152.021,141.64 C154.079,117.537 143.982,96.146 143.438,95.007 C143.432,94.994 143.407,94.792 143.454,94.757 C143.522,94.706 143.672,94.82 143.672,94.82 C143.672,94.82 153.806,107.132 156.028,127.159 C158.127,119.641 157.489,114.416 157.419,113.829 C157.419,113.829 157.419,114.063 157.419,114.063 C157.388,113.907 157.381,113.256 157.435,113.235 C157.527,113.2 157.794,113.782 157.794,113.782 C162.026,123.6 166.201,133.668 167.724,144.336 C172.414,139.396 177.936,135.111 184.1,132.161 C183.992,127.102 183.886,121.936 182.69,116.988 L182.749,116.794 C181.505,120.734 178.771,123.909 175.811,126.689 C175.811,126.689 175.811,126.689 175.811,126.689 C175.811,126.689 175.811,126.689 175.811,126.689 C175.811,126.689 175.811,126.689 175.811,126.689 C175.811,126.689 175.811,126.689 175.811,126.689 C175.811,126.689 175.811,126.689 175.811,126.689 C180.181,102.865 172.177,80.529 171.776,79.425 C171.771,79.413 171.797,79.12 171.879,79.076 C171.981,79.022 172.145,79.217 172.145,79.217 C172.145,79.217 180.9,92.532 181.188,112.688 C181.188,112.688 181.188,112.688 181.188,112.688 C181.188,112.688 181.188,112.688 181.188,112.688 C181.188,112.688 181.188,112.688 181.188,112.688 C181.188,112.688 181.188,112.688 181.188,112.688 C181.188,112.688 181.188,112.688 181.188,112.688 C181.188,112.688 181.188,112.688 181.188,112.688 C184.026,105.351 183.878,100.05 183.866,99.543 C183.865,99.531 183.855,99.333 183.894,99.316 C183.939,99.296 184.034,99.456 184.034,99.456 C187.196,109.08 190.363,119.068 190.814,129.266 C194.532,127.68 198.535,127.027 202.474,126.275 C205.74,119.41 207.61,112.249 206.622,104.626 C203.351,108.367 199.007,108.622 199.007,108.622 C209.021,94.425 209.405,67.282 209.405,67.282 z" fill="#FFFFFF"/>
      <path d="M209.405,67.282 C209.405,67.282 209.475,66.94 209.53,66.938 C209.606,66.936 209.666,67.243 209.667,67.246 C209.674,67.727 209.929,94.553 219.853,108.622 C219.853,108.622 215.509,108.367 212.238,104.626 C211.516,110.242 212.637,115.784 214.673,121.02 C215.341,122.738 216.301,124.328 217.115,125.983 C220.693,126.373 224.52,126.981 227.934,128.177 C228.649,118.381 231.313,108.739 234.715,99.55 C234.715,99.55 234.826,99.326 234.867,99.332 C234.934,99.341 234.945,99.582 234.945,99.582 C234.945,99.582 234.497,104.964 237.484,112.688 C237.762,93.298 246.179,80.302 246.821,79.347 C246.829,79.335 246.978,79.196 247.008,79.206 C247.073,79.228 246.992,79.44 246.992,79.44 C246.992,79.44 238.379,102.254 242.862,126.689 C239.802,124.021 237.213,120.677 235.924,116.795 L235.983,116.988 C234.954,121.497 234.701,126.137 234.603,130.747 C240.709,133.439 246.366,137.286 250.998,142.102 C252.635,132.223 256.511,122.746 261.109,113.884 C261.114,113.874 261.368,113.506 261.453,113.528 C261.607,113.567 261.475,113.982 261.484,113.965 C261.484,113.965 260.413,119.17 262.644,127.159 C264.802,107.713 274.491,95.578 275.058,94.895 C275.065,94.887 275.239,94.805 275.277,94.832 C275.334,94.874 275.261,95.036 275.261,95.036 C275.261,95.036 264.537,116.868 266.651,141.64 C263.864,138.674 261.608,135.085 260.697,131.086 L260.737,131.285 C258.79,137.307 258.008,143.647 257.605,149.939 C261.686,155.942 265.17,162.594 266.958,169.676 C270.3,162.344 274.521,155.448 279.467,149.09 C279.471,149.085 279.779,148.704 279.826,148.747 C279.889,148.802 279.664,149.223 279.67,149.215 C279.67,149.215 277.884,154.17 278.463,162.462 C284.472,143.915 296.416,134.146 297.13,133.58 C297.138,133.574 297.342,133.425 297.38,133.455 C297.443,133.507 297.271,133.737 297.271,133.737 C297.271,133.737 282.381,152.796 279.476,177.483 C277.359,173.983 275.858,170.019 275.77,165.893 L275.769,166.093 C273.153,170.849 271.062,175.976 269.632,181.214 L269.733,181.754 L269.621,181.255 L269.175,182.888 L266.18,196.704 C245.289,138.635 177.693,136.635 152.493,196.704 L150.445,186.358 C148.532,179.457 146.613,172.302 142.904,166.093 L142.903,165.889 C142.873,170.058 141.201,173.912 139.196,177.483 C136.391,153.636 122.261,135.021 121.317,133.776 C121.303,133.758 121.165,133.411 121.223,133.338 C121.306,133.235 121.598,133.401 121.598,133.401 C121.598,133.401 134.015,143.341 140.21,162.462 C140.765,154.51 139.133,149.5 138.999,149.102 C138.996,149.095 138.96,148.764 139.019,148.728 C139.094,148.682 139.269,148.931 139.269,148.931 C144.472,155.668 148.796,163.038 152.225,170.838 C154.19,164.197 157.349,158.042 161.22,152.331 C160.741,145.291 160.272,138.015 157.935,131.285 L157.975,131.09 C157.114,135.139 154.699,138.574 152.021,141.64 C154.079,117.537 143.982,96.146 143.438,95.007 C143.432,94.994 143.407,94.792 143.454,94.757 C143.522,94.706 143.672,94.82 143.672,94.82 C143.672,94.82 153.806,107.132 156.028,127.159 C158.127,119.641 157.489,114.416 157.419,113.829 C157.419,113.829 157.419,114.063 157.419,114.063 C157.388,113.907 157.381,113.256 157.435,113.235 C157.527,113.2 157.794,113.782 157.794,113.782 C162.026,123.6 166.201,133.668 167.724,144.336 C172.414,139.396 177.936,135.111 184.1,132.161 C183.992,127.102 183.886,121.936 182.69,116.988 L182.749,116.794 C181.505,120.734 178.771,123.909 175.811,126.689 C175.811,126.689 175.811,126.689 175.811,126.689 C175.811,126.689 175.811,126.689 175.811,126.689 C175.811,126.689 175.811,126.689 175.811,126.689 C175.811,126.689 175.811,126.689 175.811,126.689 C175.811,126.689 175.811,126.689 175.811,126.689 C180.181,102.865 172.177,80.529 171.776,79.425 C171.771,79.413 171.797,79.12 171.879,79.076 C171.981,79.022 172.145,79.217 172.145,79.217 C172.145,79.217 180.9,92.532 181.188,112.688 C181.188,112.688 181.188,112.688 181.188,112.688 C181.188,112.688 181.188,112.688 181.188,112.688 C181.188,112.688 181.188,112.688 181.188,112.688 C181.188,112.688 181.188,112.688 181.188,112.688 C181.188,112.688 181.188,112.688 181.188,112.688 C181.188,112.688 181.188,112.688 181.188,112.688 C184.026,105.351 183.878,100.05 183.866,99.543 C183.865,99.531 183.855,99.333 183.894,99.316 C183.939,99.296 184.034,99.456 184.034,99.456 C187.196,109.08 190.363,119.068 190.814,129.266 C194.532,127.68 198.535,127.027 202.474,126.275 C205.74,119.41 207.61,112.249 206.622,104.626 C203.351,108.367 199.007,108.622 199.007,108.622 C209.021,94.425 209.405,67.282 209.405,67.282 z" fill-opacity="0" stroke="#000000" stroke-width="1.25"/>
    </g>
  </g>
</svg>
